<?xml version="1.0" encoding="UTF-8" standalone="no"?>
<!-- Created with Inkscape (http://www.inkscape.org/) -->

<svg
   width="38.663822mm"
   height="44.290546mm"
   viewBox="0 0 38.663822 44.290546"
   version="1.1"
   id="svg1"
   xml:space="preserve"
   xmlns="http://www.w3.org/2000/svg"
   xmlns:svg="http://www.w3.org/2000/svg"><defs
     id="defs1" /><g
     id="layer1"
     transform="translate(-85.646959,-91.726537)"><path
       style="fill:#c91214;fill-opacity:1;stroke:#000000;stroke-width:10;stroke-linecap:round;stroke-linejoin:round;stroke-dasharray:none;stroke-opacity:1"
       id="path2-3"
       d="m 184.40838,148.5 -101.347441,-1.46109 -49.408379,-88.5 51.939061,-87.038913 101.347439,1.461091 49.40838,88.500002 z"
       transform="matrix(0.00272425,0.20819703,-0.20819703,0.00272425,117.10292,85.601763)" /><path
       style="fill:#000000;fill-opacity:1;stroke:#000000;stroke-width:10;stroke-linecap:round;stroke-linejoin:round;stroke-dasharray:none;stroke-opacity:1"
       id="path2-9-5"
       d="m 184.40838,148.5 -101.347441,-1.46109 -49.408379,-88.5 51.939061,-87.038913 101.347439,1.461091 49.40838,88.500002 z"
       transform="matrix(0.00204883,0.15657846,-0.15657846,0.00204883,114.09699,92.610795)" /><path
       style="fill:#ffffff;fill-opacity:1;stroke:none;stroke-width:7.90664;stroke-linecap:round;stroke-linejoin:round;stroke-dasharray:none;stroke-opacity:1"
       d="m 99.444226,104.38384 -3.953325,3.95334 5.534659,5.53464 -5.534659,5.53465 3.953325,3.95333 5.534654,-5.53465 5.53465,5.53465 3.95332,-3.95333 -5.53465,-5.53465 5.53465,-5.53464 -3.95332,-3.95334 -5.53465,5.53465 z"
       id="path4" /></g></svg>
